<?xml version="1.0" encoding="utf-8"?>
<!-- Generator: Adobe Illustrator 17.0.0, SVG Export Plug-In . SVG Version: 6.00 Build 0)  -->
<!DOCTYPE svg PUBLIC "-//W3C//DTD SVG 1.1//EN" "http://www.w3.org/Graphics/SVG/1.1/DTD/svg11.dtd">
<svg version="1.1" id="Layer_1" xmlns="http://www.w3.org/2000/svg" xmlns:xlink="http://www.w3.org/1999/xlink" x="0px" y="0px"
	 width="1024px" height="1024px" viewBox="0 0 1024 1024" enable-background="new 0 0 1024 1024" xml:space="preserve">
<g>
	<path fill="#2EB2E8" d="M458.574,398.812c37.616-11.7,69.328-5.124,78.144-2.831c21.742,5.646,38.196,15.564,50.627,26.927
		l0.733,0.593l-0.049,0.061c30.991,28.815,36.497,66.494,36.652,67.638c2.397,18.402-0.221,34.956-3.897,47.76
		c7.468-9.303,14.649-20.024,21.334-32.463l54.806-101.643c-49.548-112.302-179.58-125.144-195.651-126.257
		c-14.689-1.017-28.711,0-42.185,0c-139.051,0-228.008,146.716-236.113,161.795C182.691,515.334,62.84,738.315,62.84,738.315
		h158.909L354.381,492.34C380.555,443.651,415.61,412.178,458.574,398.812z"/>
	<path fill="#2EB2E8" d="M798.765,278.144L668.098,520.482c-49.446,91.992-121.376,101.924-150.01,101.924
		c-11.996,0-23.512-1.588-33.293-4.59c-2.966-0.909-5.803-1.917-8.58-2.968c-20.498-7.304-33.248-18.271-34.204-19.116l-1.994-1.754
		c-1.679-1.395-3.286-2.818-4.841-4.259l-0.257-0.226l0.008-0.01c-26.21-24.399-35.145-54.523-36.071-66.94
		c-1.478-19.815,0.959-37.882,7.175-53.984c-8.922,10.305-17.583,22.721-25.67,37.767L325.57,607.939
		c48.323,115.641,180.915,128.8,197.157,129.924c14.689,1.017,28.711,0,42.185,0c139.051,0,228.008-146.716,236.113-161.795
		c40.283-74.943,160.134-297.924,160.134-297.924H798.765z"/>
</g>
</svg>
